:FULLY-SPECIFIED
:FORCE-ALL-JOINTS-BE-3DOF
:DEGREES
1937
root 5.48825 13.7155 28.268 1029.89 66.3936 305.678
lfemur -63.6494 10.3741 -11.3192
ltibia 66.5858 0 0
lfoot -4.53633 0.38163 0
ltoes -33.3266 0 0
rfemur -5.64459 -5.56021 19.3602
rtibia 62.994 0 0
rfoot -26.6975 -30.407 0
rtoes -27.5388 0 0
lowerback 13.1576 4.22428 4.48767
upperback -0.786751 6.73153 3.50366
thorax -8.19482 3.19445 -0.0774376
lowerneck -0.256324 14.9664 7.21801
upperneck 4.99283 20.3826 -7.62175
head 3.36869 10.1545 -2.84706
lclavicle 2.07068e-14 -2.87641e-14 0
lhumerus 70.0886 -32.3112 46.0441
lradius 53.4347 0 0
lwrist 11.6553 0 0
lhand -12.5398 34.3455 0
lfingers 7.12502 0 0
lthumb 13.5394 91.0486 0
rclavicle 2.07068e-14 -2.87641e-14 0
rhumerus -38.509 27.4858 -74.7426
rradius 91.6053 0 0
rwrist -34.2043 0 0
rhand -12.7472 -403.374 0
rfingers 7.12502 0 0
rthumb 13.3357 287.095 0
1938
root 5.36974 13.7225 28.3198 1026.56 66.6558 302.326
lfemur -63.9269 10.1179 -12.2752
ltibia 66.2667 0 0
lfoot -4.64986 0.596898 0
ltoes -33.3514 0 0
rfemur -6.06961 -5.55019 19.8081
rtibia 63.1105 0 0
rfoot -27.0902 -30.614 0
rtoes -27.6856 0 0
lowerback 13.2498 4.11228 4.57363
upperback -0.766209 6.60918 3.52874
thorax -8.22994 3.13352 -0.0770691
lowerneck -0.264309 14.9507 7.21296
upperneck 4.89396 20.3569 -7.69124
head 3.33978 10.1415 -2.87439
lclavicle 2.30539e-14 -3.09154e-14 0
lhumerus 71.2668 -33.3164 44.404
lradius 56.3192 0 0
lwrist 12.9608 0 0
lhand -12.5267 34.4434 0
lfingers 7.12502 0 0
lthumb 13.5521 96.4566 0
rclavicle 2.30539e-14 -3.09154e-14 0
rhumerus -37.8393 28.3913 -74.4734
rradius 91.7598 0 0
rwrist -34.2972 0 0
rhand -12.5653 -403.317 0
rfingers 7.12502 0 0
rthumb 13.5111 287.163 0
1939
root 5.25353 13.7293 28.3728 1023.24 66.912 298.978
lfemur -64.2044 9.87795 -13.2291
ltibia 65.9539 0 0
lfoot -4.77269 0.80507 0
ltoes -33.3722 0 0
rfemur -6.48282 -5.53992 20.2638
rtibia 63.2015 0 0
rfoot -27.4964 -30.8243 0
rtoes -27.8459 0 0
lowerback 13.3445 4.00096 4.66768
upperback -0.744919 6.48948 3.55679
thorax -8.26527 3.07367 -0.0785539
lowerneck -0.273107 14.9367 7.20788
upperneck 4.79672 20.3335 -7.75996
head 3.31153 10.1297 -2.90122
lclavicle 2.52613e-14 -3.31173e-14 0
lhumerus 72.4681 -34.287 42.8099
lradius 59.2053 0 0
lwrist 14.1635 0 0
lhand -12.5368 34.5486 0
lfingers 7.12502 0 0
lthumb 13.5424 102.102 0
rclavicle 2.52613e-14 -3.31173e-14 0
rhumerus -37.2063 29.2976 -74.2244
rradius 91.9517 0 0
rwrist -34.4444 0 0
rhand -12.3863 -403.257 0
rfingers 7.12502 0 0
rthumb 13.6837 287.233 0
1940
root 5.13927 13.7361 28.4266 1019.92 67.1604 295.632
lfemur -64.4804 9.65432 -14.1798
ltibia 65.6475 0 0
lfoot -4.9043 1.00761 0
ltoes -33.3888 0 0
rfemur -6.88515 -5.52934 20.7258
rtibia 63.2688 0 0
rfoot -27.9135 -31.0371 0
rtoes -28.0172 0 0
lowerback 13.4412 3.89015 4.76887
upperback -0.722975 6.372 3.58761
thorax -8.30071 3.01471 -0.081513
lowerneck -0.282859 14.9239 7.20252
upperneck 4.70101 20.3117 -7.8278
head 3.28389 10.1185 -2.92752
lclavicle 2.73328e-14 -3.53584e-14 0
lhumerus 73.6859 -35.2217 41.2625
lradius 62.0867 0 0
lwrist 15.2662 0 0
lhand -12.5693 34.6608 0
lfingers 7.12502 0 0
lthumb 13.5112 107.922 0
rclavicle 2.73328e-14 -3.53584e-14 0
rhumerus -36.6102 30.2026 -73.9955
rradius 92.1789 0 0
rwrist -34.6437 0 0
rhand -12.2095 -403.196 0
rfingers 7.12502 0 0
rthumb 13.8542 287.306 0
1941
root 5.02657 13.743 28.4812 1016.6 67.3988 292.288
lfemur -64.7536 9.44708 -15.126
ltibia 65.3475 0 0
lfoot -5.04419 1.20597 0
ltoes -33.401 0 0
rfemur -7.27752 -5.51837 21.1924
rtibia 63.3147 0 0
rfoot -28.3387 -31.252 0
rtoes -28.1969 0 0
lowerback 13.5395 3.77968 4.87625
upperback -0.700472 6.25633 3.62095
thorax -8.33612 2.95648 -0.0855677
lowerneck -0.293704 14.912 7.19661
upperneck 4.60675 20.2909 -7.89462
head 3.25677 10.1079 -2.95323
lclavicle 2.92724e-14 -3.76272e-14 0
lhumerus 74.9138 -36.1192 39.7624
lradius 64.957 0 0
lwrist 16.2712 0 0
lhand -12.6232 34.7796 0
lfingers 7.12502 0 0
lthumb 13.4592 113.854 0
rclavicle 2.92724e-14 -3.76272e-14 0
rhumerus -36.051 31.1041 -73.7866
rradius 92.4389 0 0
rwrist -34.8929 0 0
rhand -12.0342 -403.131 0
rfingers 7.12502 0 0
rthumb 14.0232 287.38 0
1942
root 4.91506 13.7499 28.5362 1013.29 67.6253 288.943
lfemur -65.0224 9.2563 -16.0667
ltibia 65.0538 0 0
lfoot -5.19184 1.40163 0
ltoes -33.4083 0 0
rfemur -7.66086 -5.50694 21.6619
rtibia 63.3412 0 0
rfoot -28.7694 -31.4681 0
rtoes -28.3826 0 0
lowerback 13.6391 3.6694 4.98888
upperback -0.677504 6.14204 3.65662
thorax -8.37137 2.8988 -0.0903391
lowerneck -0.305783 14.9005 7.1899
upperneck 4.51383 20.2705 -7.9603
head 3.23011 10.0974 -2.97829
lclavicle 3.10839e-14 -3.99124e-14 0
lhumerus 76.1455 -36.978 38.3102
lradius 67.81 0 0
lwrist 17.1813 0 0
lhand -12.6978 34.9047 0
lfingers 7.12502 0 0
lthumb 13.3873 119.834 0
rclavicle 3.10839e-14 -3.99124e-14 0
rhumerus -35.5288 31.9999 -73.5978
rradius 92.7297 0 0
rwrist -35.1897 0 0
rhand -11.8597 -403.065 0
rfingers 7.12502 0 0
rthumb 14.1915 287.457 0
1943
root 4.80438 13.757 28.5914 1009.97 67.838 285.598
lfemur -65.2855 9.08206 -17.0005
ltibia 64.7665 0 0
lfoot -5.34675 1.59603 0
ltoes -33.4106 0 0
rfemur -8.03611 -5.49499 22.1329
rtibia 63.3504 0 0
rfoot -29.2027 -31.6847 0
rtoes -28.5718 0 0
lowerback 13.7395 3.55913 5.1058
upperback -0.654167 6.02871 3.6944
thorax -8.40635 2.84148 -0.0954483
lowerneck -0.319234 14.8888 7.18214
upperneck 4.42217 20.2498 -8.02472
head 3.20383 10.0868 -3.00265
lclavicle 3.27712e-14 -4.22024e-14 0
lhumerus 77.3746 -37.7968 36.9066
lradius 70.6393 0 0
lwrist 17.9988 0 0
lhand -12.7919 35.0356 0
lfingers 7.12502 0 0
lthumb 13.2965 125.799 0
rclavicle 3.27712e-14 -4.22024e-14 0
rhumerus -35.0437 32.8879 -73.4289
rradius 93.049 0 0
rwrist -35.5317 0 0
rhand -11.6852 -402.997 0
rfingers 7.12502 0 0
rthumb 14.3598 287.536 0
1944
root 4.69414 13.7643 28.6465 1006.65 68.0348 282.25
lfemur -65.5415 8.92444 -17.9264
ltibia 64.4855 0 0
lfoot -5.50841 1.79064 0
ltoes -33.4074 0 0
rfemur -8.40418 -5.48243 22.6036
rtibia 63.3442 0 0
rfoot -29.6361 -31.9013 0
rtoes -28.7619 0 0
lowerback 13.8402 3.44871 5.22608
upperback -0.630556 5.91591 3.73406
thorax -8.44092 2.78435 -0.100516
lowerneck -0.334197 14.8765 7.17305
upperneck 4.33168 20.2283 -8.08776
head 3.17786 10.0757 -3.02626
lclavicle 3.43382e-14 -4.44859e-14 0
lhumerus 78.5946 -38.5743 35.5522
lradius 73.4386 0 0
lwrist 18.7264 0 0
lhand -12.9049 35.1721 0
lfingers 7.12502 0 0
lthumb 13.1876 131.687 0
rclavicle 3.43382e-14 -4.44859e-14 0
rhumerus -34.5957 33.7658 -73.28
rradius 93.3946 0 0
rwrist -35.9166 0 0
rhand -11.5102 -402.926 0
rfingers 7.12502 0 0
rthumb 14.5286 287.616 0
1945
root 4.58399 13.7719 28.7013 1003.34 68.2137 278.898
lfemur -65.7888 8.78352 -18.8432
ltibia 64.211 0 0
lfoot -5.6763 1.98693 0
ltoes -33.3986 0 0
rfemur -8.76601 -5.46921 23.0725
rtibia 63.3249 0 0
rfoot -30.0668 -32.117 0
rtoes -28.9505 0 0
lowerback 13.9408 3.33797 5.34877
upperback -0.606765 5.80323 3.77539
thorax -8.47497 2.72723 -0.105165
lowerneck -0.350812 14.8632 7.1624
upperneck 4.24226 20.2053 -8.14929
head 3.15212 10.0638 -3.04906
lclavicle 3.57886e-14 -4.67514e-14 0
lhumerus 79.7991 -39.3089 34.2477
lradius 76.2016 0 0
lwrist 19.3667 0 0
lhand -13.0357 35.3138 0
lfingers 7.12502 0 0
lthumb 13.0614 137.434 0
rclavicle 3.57886e-14 -4.67514e-14 0
rhumerus -34.185 34.6315 -73.1511
rradius 93.7641 0 0
rwrist -36.3423 0 0
rhand -11.3338 -402.854 0
rfingers 7.12502 0 0
rthumb 14.6987 287.7 0
